<svg width="380" height="86" viewBox="0 0 380 86" fill="none" xmlns="http://www.w3.org/2000/svg">
<rect width="380" height="86" rx="8" fill="#F6F6F6"/>
<g clip-path="url(#clip0_23_615)">
<path d="M26.5363 32.5396C20.7374 32.5396 16.0361 37.2406 16.0361 43.0396C16.0361 48.8388 20.7374 53.5396 26.5363 53.5396C32.3359 53.5396 37.0366 48.8388 37.0366 43.0396C37.0366 37.241 32.3359 32.5401 26.5362 32.5401L26.5363 32.5396ZM31.3516 47.6837C31.1636 47.9921 30.7598 48.0899 30.4514 47.9006C27.986 46.3947 24.8825 46.0536 21.2275 46.8887C20.8753 46.969 20.5242 46.7483 20.4439 46.3959C20.3633 46.0436 20.5831 45.6925 20.9362 45.6123C24.936 44.6985 28.367 45.0919 31.1347 46.7834C31.4432 46.9727 31.541 47.3752 31.3516 47.6837ZM32.6369 44.8246C32.3999 45.2098 31.8958 45.3314 31.5109 45.0944C28.6884 43.3596 24.3861 42.8572 21.0477 43.8705C20.6147 44.0013 20.1574 43.7573 20.026 43.3251C19.8956 42.8922 20.1398 42.4358 20.572 42.3041C24.3853 41.147 29.126 41.7075 32.3673 43.6993C32.7522 43.9362 32.8738 44.4403 32.6369 44.8247V44.8246ZM32.7472 41.8474C29.363 39.8374 23.7796 39.6526 20.5485 40.6332C20.0297 40.7906 19.481 40.4977 19.3238 39.9788C19.1665 39.4597 19.4592 38.9114 19.9784 38.7537C23.6874 37.6277 29.8533 37.8453 33.7495 40.1582C34.2172 40.4352 34.3702 41.038 34.0931 41.504C33.8172 41.9707 33.2129 42.1245 32.7477 41.8474H32.7472ZM44.6037 42.2326C42.7906 41.8003 42.4684 41.4969 42.4684 40.8593C42.4684 40.2569 43.0351 39.8516 43.879 39.8516C44.6965 39.8516 45.5065 40.1594 46.3566 40.7931C46.3817 40.8123 46.4143 40.8199 46.4456 40.8149C46.4782 40.8101 46.5058 40.7927 46.5246 40.7665L47.4098 39.5187C47.4462 39.4672 47.4361 39.3964 47.3872 39.3572C46.3754 38.5455 45.2369 38.1509 43.9053 38.1509C41.948 38.1509 40.58 39.3257 40.58 41.0065C40.58 42.8089 41.7599 43.4471 43.7987 43.9398C45.5328 44.3394 45.8262 44.6741 45.8262 45.2725C45.8262 45.9358 45.2344 46.3483 44.2814 46.3483C43.2232 46.3483 42.3593 45.9909 41.3938 45.1559C41.37 45.1346 41.3374 45.1258 41.3073 45.127C41.2747 45.1295 41.2458 45.1446 41.2258 45.1684L40.2327 46.3496C40.1914 46.3997 40.1964 46.4724 40.244 46.5151C41.3675 47.5181 42.7492 48.0473 44.2413 48.0473C46.3503 48.0473 47.7133 46.895 47.7133 45.1107C47.717 43.6052 46.8155 42.7714 44.6074 42.2343L44.6037 42.2326ZM52.4854 40.4446C51.5714 40.4446 50.8216 40.8047 50.2022 41.5426V40.7121C50.2022 40.6465 50.1495 40.5931 50.0843 40.5931H48.4606C48.3954 40.5931 48.3427 40.6465 48.3427 40.7121V49.9406C48.3427 50.0058 48.3954 50.0597 48.4606 50.0597H50.0843C50.1495 50.0597 50.2022 50.0058 50.2022 49.9406V47.0279C50.8216 47.7213 51.5714 48.0611 52.4854 48.0611C54.1844 48.0611 55.9047 46.7533 55.9047 44.2532C55.9072 41.7527 54.1869 40.4445 52.4867 40.4445L52.4854 40.4446ZM54.0164 44.2532C54.0164 45.5258 53.2327 46.4148 52.1093 46.4148C50.9996 46.4148 50.162 45.4856 50.162 44.2532C50.162 43.0207 50.9996 42.0918 52.1093 42.0918C53.2139 42.0917 54.0164 43.0005 54.0164 44.2531V44.2532ZM60.312 40.4446C58.124 40.4446 56.41 42.1293 56.41 44.2804C56.41 46.4085 58.1128 48.0749 60.2857 48.0749C62.4812 48.0749 64.2002 46.3959 64.2002 44.2532C64.2002 42.1178 62.4925 40.4449 60.312 40.4449V40.4446ZM60.312 46.4273C59.1484 46.4273 58.2707 45.4919 58.2707 44.2526C58.2707 43.0076 59.1184 42.1042 60.2857 42.1042C61.4568 42.1042 62.3395 43.0392 62.3395 44.2798C62.3395 45.5245 61.4869 46.4273 60.312 46.4273ZM68.8721 40.5931H67.0854V38.7667C67.0854 38.7013 67.0327 38.6478 66.9675 38.6478H65.3438C65.2786 38.6478 65.2246 38.7013 65.2246 38.7667V40.5931H64.4447C64.3795 40.5931 64.3269 40.6465 64.3269 40.7121V42.1072C64.3269 42.1727 64.3795 42.2262 64.4447 42.2262H65.2246V45.8367C65.2246 47.295 65.9506 48.0347 67.3838 48.0347C67.9656 48.0347 68.4483 47.9144 68.9035 47.6561C68.9411 47.636 68.9637 47.5959 68.9637 47.5533V46.2242C68.9637 46.184 68.9423 46.1452 68.9072 46.1239C68.8721 46.1013 68.8282 46.1 68.7919 46.1188C68.4797 46.2756 68.1775 46.3483 67.8389 46.3483C67.3186 46.3483 67.0854 46.1113 67.0854 45.5822V42.2269H68.8721C68.9373 42.2269 68.99 42.1734 68.99 42.1079V40.7128C68.9925 40.6473 68.9398 40.5938 68.8734 40.5938L68.8721 40.5931ZM75.0963 40.6002V40.3759C75.0963 39.716 75.3496 39.4217 75.9163 39.4217C76.2548 39.4217 76.5269 39.4889 76.8316 39.5905C76.8692 39.6023 76.9081 39.5964 76.9382 39.5739C76.9695 39.5515 76.9871 39.5155 76.9871 39.4774V38.1094C76.9871 38.0572 76.9545 38.0109 76.9031 37.9955C76.5821 37.8998 76.1708 37.8016 75.5539 37.8016C74.0556 37.8016 73.2619 38.646 73.2619 40.2425V40.5861H72.482C72.4168 40.5861 72.3629 40.6395 72.3629 40.7049V42.1072C72.3629 42.1727 72.4168 42.2262 72.482 42.2262H73.2619V47.794C73.2619 47.8604 73.3158 47.9131 73.381 47.9131H75.0035C75.07 47.9131 75.1226 47.8604 75.1226 47.794V42.2266H76.6385L78.9607 47.794C78.6974 48.3783 78.4378 48.4949 78.0842 48.4949C77.7983 48.4949 77.4962 48.4096 77.189 48.2404C77.1601 48.2253 77.125 48.2228 77.0949 48.2316C77.0636 48.2429 77.0373 48.2654 77.0247 48.2955L76.4743 49.503C76.4479 49.5607 76.4705 49.6271 76.5257 49.6572C77.0999 49.9682 77.6178 50.1011 78.2585 50.1011C79.4572 50.1011 80.1205 49.5419 80.7035 48.0398L83.5197 40.7627C83.5348 40.7261 83.5297 40.6847 83.5072 40.6523C83.4859 40.62 83.4495 40.6006 83.4106 40.6006H81.7204C81.669 40.6006 81.6239 40.6328 81.6076 40.6804L79.876 45.6248L77.9802 40.6771C77.9626 40.6311 77.9187 40.6006 77.8698 40.6006H75.0963V40.6002ZM71.4877 40.5931H69.8639C69.7987 40.5931 69.7448 40.6465 69.7448 40.7121V47.794C69.7448 47.8604 69.7987 47.9131 69.8639 47.9131H71.4877C71.5529 47.9131 71.6068 47.8604 71.6068 47.794V40.7126C71.6068 40.647 71.5541 40.5936 71.4877 40.5936V40.5931ZM70.6852 37.3683C70.042 37.3683 69.5204 37.8889 69.5204 38.532C69.5204 39.1755 70.042 39.6967 70.6852 39.6967C71.3284 39.6967 71.8488 39.1755 71.8488 38.532C71.8488 37.889 71.3272 37.3683 70.6852 37.3683ZM84.9065 42.8702C84.2645 42.8702 83.7642 42.3543 83.7642 41.7277C83.7642 41.1011 84.2708 40.5793 84.9128 40.5793C85.5547 40.5793 86.055 41.0951 86.055 41.7212C86.055 42.3477 85.5485 42.8702 84.9065 42.8702ZM84.9128 40.6929C84.3272 40.6929 83.8846 41.1581 83.8846 41.7277C83.8846 42.2971 84.3247 42.756 84.9065 42.756C85.492 42.756 85.9346 42.2912 85.9346 41.7212C85.9346 41.1518 85.4945 40.6929 84.9128 40.6929ZM85.166 41.8387L85.4895 42.2911H85.2162L84.9253 41.876H84.6758V42.2911H84.4476V41.0919H84.9817C85.2613 41.0919 85.4444 41.2344 85.4444 41.4744C85.4456 41.671 85.3315 41.7911 85.1673 41.8387H85.166ZM84.9729 41.2976H84.6758V41.6769H84.9729C85.1209 41.6769 85.2099 41.6043 85.2099 41.4871C85.2099 41.3637 85.1209 41.2976 84.9729 41.2976Z" fill="#272D38"/>
</g>
<g clip-path="url(#clip1_23_615)">
<path d="M134.472 47.1784L135.2 45.4768C135.998 46.0671 137.037 46.3796 138.077 46.3796C138.84 46.3796 139.325 46.0845 139.325 45.6332C139.307 44.383 134.732 45.3553 134.698 42.2122C134.68 40.6148 136.101 39.382 138.112 39.382C139.307 39.382 140.503 39.6773 141.352 40.3546L140.672 42.0924C139.891 41.5901 138.926 41.2399 138.008 41.2399C137.384 41.2399 136.968 41.5349 136.968 41.9172C136.985 43.15 141.595 42.4727 141.647 45.4768C141.647 47.109 140.261 48.2551 138.285 48.2551C136.829 48.2551 135.495 47.9079 134.472 47.1784H134.472ZM163.46 44.8607C163.276 45.1872 163.009 45.4589 162.685 45.6481C162.362 45.8372 161.994 45.9369 161.619 45.9369C160.452 45.9369 159.505 44.9885 159.505 43.8185C159.505 42.6486 160.452 41.7002 161.619 41.7002C161.994 41.7002 162.362 41.7999 162.685 41.989C163.009 42.1781 163.276 42.4499 163.46 42.7764L165.484 41.653C164.726 40.2981 163.28 39.382 161.619 39.382C159.174 39.382 157.192 41.3681 157.192 43.8185C157.192 46.2687 159.174 48.2551 161.619 48.2551C163.28 48.2551 164.726 47.339 165.484 45.9841L163.46 44.8607ZM142.961 48.0814H145.491V35.6888H142.961L142.961 48.0814ZM166.762 35.6888V48.0814H169.292V44.3686L172.29 48.0814H175.524L171.711 43.6707L175.247 39.555H172.151L169.292 42.9767V35.6888H166.762ZM153.286 39.5555V40.5628C152.87 39.8681 151.848 39.382 150.773 39.382C148.555 39.382 146.805 41.3443 146.805 43.8098C146.805 46.2754 148.555 48.2551 150.773 48.2551C151.848 48.2551 152.87 47.7689 153.286 47.0743V48.0814H155.816V39.5555H153.286ZM153.286 44.8778C152.922 45.4855 152.16 45.9367 151.31 45.9367C150.143 45.9367 149.196 44.9885 149.196 43.8185C149.196 42.6486 150.143 41.7002 151.31 41.7002C152.16 41.7002 152.922 42.1689 153.286 42.7938V44.8778Z" fill="#272D38"/>
<path d="M121.11 35.415C120.291 35.415 119.626 36.0811 119.626 36.9026C119.626 37.0977 119.664 37.291 119.738 37.4714C119.813 37.6518 119.922 37.8157 120.06 37.9538C120.198 38.092 120.362 38.2016 120.542 38.2764C120.722 38.3513 120.915 38.3899 121.11 38.3901H122.595V36.9026C122.596 36.5084 122.439 36.1303 122.161 35.8513C121.882 35.5724 121.505 35.4154 121.11 35.415ZM121.11 39.3818H117.151C116.331 39.3818 115.667 40.0479 115.667 40.8696C115.667 41.6911 116.331 42.3572 117.151 42.3572H121.111C121.93 42.3572 122.595 41.6911 122.595 40.8696C122.595 40.0479 121.93 39.3818 121.11 39.3818Z" fill="#272D38"/>
<path d="M130.513 40.8696C130.513 40.0479 129.849 39.3818 129.029 39.3818C128.209 39.3818 127.544 40.0479 127.544 40.8696V42.3572H129.029C129.423 42.3568 129.801 42.1999 130.079 41.9209C130.358 41.6419 130.514 41.2638 130.513 40.8696ZM126.554 40.8696V36.9026C126.555 36.5084 126.398 36.1303 126.12 35.8513C125.842 35.5724 125.464 35.4154 125.07 35.415C124.25 35.415 123.585 36.0811 123.585 36.9026V40.8694C123.585 41.6913 124.25 42.3574 125.07 42.3574C125.464 42.357 125.842 42.2001 126.12 41.9211C126.398 41.6422 126.555 41.264 126.554 40.8699" fill="#272D38"/>
<path d="M125.07 50.291C125.464 50.2906 125.842 50.1337 126.12 49.8547C126.399 49.5758 126.555 49.1976 126.554 48.8035C126.555 48.4093 126.399 48.0312 126.12 47.7522C125.842 47.4733 125.464 47.3163 125.07 47.3159H123.585V48.8035C123.585 49.6249 124.25 50.291 125.07 50.291ZM125.07 46.3242H129.029C129.849 46.3242 130.514 45.6581 130.514 44.8364C130.514 44.4423 130.358 44.0641 130.079 43.7852C129.801 43.5062 129.423 43.3493 129.029 43.3489H125.07C124.25 43.3489 123.585 44.015 123.585 44.8364C123.585 45.0316 123.623 45.2249 123.698 45.4052C123.772 45.5856 123.881 45.7495 124.019 45.8877C124.157 46.0258 124.321 46.1354 124.501 46.2103C124.681 46.2851 124.874 46.3238 125.07 46.324" fill="#272D38"/>
<path d="M115.667 44.8364C115.666 45.0316 115.705 45.2249 115.779 45.4052C115.854 45.5856 115.963 45.7495 116.101 45.8877C116.239 46.0258 116.402 46.1354 116.583 46.2103C116.763 46.2851 116.956 46.3238 117.151 46.324C117.545 46.3236 117.923 46.1666 118.202 45.8877C118.48 45.6087 118.636 45.2306 118.636 44.8364V43.3489H117.151C116.331 43.3489 115.667 44.015 115.667 44.8364ZM119.626 44.8364V48.8032C119.626 49.6249 120.29 50.291 121.11 50.291C121.504 50.2906 121.882 50.1337 122.161 49.8547C122.439 49.5758 122.595 49.1976 122.595 48.8035V44.8364C122.595 44.6413 122.557 44.448 122.483 44.2676C122.408 44.0872 122.299 43.9232 122.161 43.7851C122.023 43.647 121.859 43.5373 121.679 43.4625C121.499 43.3876 121.306 43.349 121.11 43.3489C120.29 43.3489 119.626 44.015 119.626 44.8364Z" fill="#272D38"/>
</g>
<g clip-path="url(#clip2_23_615)">
<path d="M227.444 38.0985H231.185C233.57 38.0985 235.54 39.4784 235.54 42.6291V43.2911C235.54 46.4657 233.697 47.8935 231.257 47.8935H227.444V38.0985ZM229.534 39.8772V46.1068H231.137C232.493 46.1068 233.402 45.2214 233.402 43.2512V42.7327C233.402 40.7626 232.445 39.8772 231.065 39.8772H229.534ZM236.649 39.9729H238.324L238.595 41.8155C238.914 40.5632 239.727 39.8931 241.203 39.8931H241.722V42.0069H240.86C239.161 42.0069 238.746 42.5971 238.746 44.2722V47.9174H236.681V39.9729H236.649ZM242.136 44.1047V43.8813C242.136 41.2252 243.835 39.7735 246.148 39.7735C248.51 39.7735 250.161 41.2252 250.161 43.8813V44.1047C250.161 46.713 248.557 48.1168 246.148 48.1168C243.588 48.0929 242.136 46.7209 242.136 44.1047ZM248.047 44.0808V43.8813C248.047 42.4057 247.305 41.5203 246.125 41.5203C244.968 41.5203 244.202 42.3339 244.202 43.8813V44.0808C244.202 45.5085 244.944 46.3221 246.125 46.3221C247.305 46.2982 248.047 45.5085 248.047 44.0808ZM251.245 39.9729H252.968L253.168 41.4725C253.582 40.4674 254.468 39.7735 255.776 39.7735C257.794 39.7735 259.126 41.2252 259.126 43.9133V44.1366C259.126 46.7449 257.65 48.1248 255.776 48.1248C254.524 48.1248 253.662 47.5585 253.24 46.6492V50.6613H251.221L251.245 39.9729ZM257.028 44.0808V43.9053C257.028 42.3259 256.215 41.5443 255.13 41.5443C253.973 41.5443 253.208 42.4296 253.208 43.9053V44.0568C253.208 45.4607 253.949 46.3461 255.106 46.3461C256.294 46.3221 257.028 45.5644 257.028 44.0808ZM262.181 46.4497L262.006 47.9014H260.235V37.3168H262.253V41.3768C262.7 40.3398 263.585 39.7735 264.837 39.7735C266.736 39.7974 268.139 41.1056 268.139 43.7378V43.985C268.139 46.6172 266.807 48.1248 264.789 48.1248C263.457 48.0929 262.596 47.4787 262.181 46.4497ZM266.018 43.985V43.7856C266.018 42.3339 265.228 41.5203 264.119 41.5203C262.987 41.5203 262.197 42.4296 262.197 43.8096V43.985C262.197 45.4607 262.963 46.3221 264.095 46.3221C265.308 46.3221 266.018 45.5644 266.018 43.985ZM269.025 44.1047V43.8813C269.025 41.2252 270.724 39.7735 273.037 39.7735C275.398 39.7735 277.049 41.2252 277.049 43.8813V44.1047C277.049 46.713 275.422 48.1168 273.037 48.1168C270.477 48.0929 269.025 46.7209 269.025 44.1047ZM274.951 44.0808V43.8813C274.951 42.4057 274.209 41.5203 273.029 41.5203C271.872 41.5203 271.107 42.3339 271.107 43.8813V44.0808C271.107 45.5085 271.848 46.3221 273.029 46.3221C274.217 46.2982 274.951 45.5085 274.951 44.0808ZM279.753 43.7856L276.969 39.9729H279.354L280.957 42.3579L282.585 39.9729H284.946L282.122 43.7617L285.097 47.9014H282.76L280.942 45.2692L279.171 47.9014H276.73L279.753 43.7856Z" fill="#272D38"/>
<path d="M214.586 38.0985L209.96 41.0498L214.586 44.0011L209.96 46.9523L205.333 43.9851L209.96 41.0339L205.333 38.0985L209.96 35.1473L214.586 38.0985ZM209.936 47.9015L214.562 44.9503L219.188 47.9015L214.562 50.8528L209.936 47.9015ZM214.586 43.9851L219.212 41.0339L214.586 38.0985L219.188 35.1473L223.815 38.0985L219.188 41.0498L223.815 44.0011L219.188 46.9523L214.586 43.9851Z" fill="#272D38"/>
</g>
<path fill-rule="evenodd" clip-rule="evenodd" d="M354.854 41.2986C355.041 41.6214 355.102 41.9887 355.122 42.4016L355.149 42.952V46.8003L355.176 47.3513C355.23 48.251 355.894 48.9163 356.8 48.9729L357.348 49V42.952L357.376 42.4016C357.398 41.9933 357.459 41.6191 357.649 41.294C357.842 40.9605 358.12 40.6838 358.455 40.4917C358.789 40.2996 359.168 40.1989 359.553 40.1996C359.939 40.2003 360.318 40.3024 360.651 40.4957C360.985 40.6891 361.262 40.9667 361.454 41.3009C361.641 41.6237 361.7 41.998 361.722 42.4016L361.749 42.9502V46.8003L361.777 47.3513C361.833 48.2556 362.491 48.9209 363.401 48.9729L363.949 49V42.4016C363.949 41.2348 363.486 40.1158 362.661 39.2906C361.836 38.4654 360.717 38.0016 359.55 38.0012C358.926 38.0005 358.308 38.1331 357.739 38.3901C357.17 38.6472 356.662 39.0227 356.25 39.4917C355.837 39.0229 355.33 38.6475 354.761 38.3903C354.191 38.1332 353.574 38.0004 352.95 38.0006C352.036 38.0006 351.188 38.2778 350.486 38.7565C350.058 38.2784 349.099 38.0006 348.549 38.0006V49L349.099 48.9729C350.019 48.9122 350.685 48.2649 350.721 47.3513L350.75 46.8003V42.952L350.777 42.4016C350.8 41.9864 350.858 41.6214 351.046 41.2963C351.239 40.963 351.517 40.6864 351.851 40.4941C352.185 40.3018 352.564 40.2004 352.95 40.2002C353.335 40.2003 353.714 40.3018 354.049 40.4946C354.383 40.6874 354.66 40.9647 354.854 41.2986ZM317.2 48.9734L317.75 49H325.999L325.972 48.4514C325.898 47.547 325.257 46.8864 324.35 46.8275L323.8 46.8003H318.851L325.449 40.1997L325.422 39.6516C325.379 38.738 324.712 38.078 323.8 38.0277L323.249 38.0029L315 38.0006L315.027 38.5509C315.099 39.4466 315.749 40.1211 316.649 40.1731L317.2 40.2002H322.149L315.55 46.8009L315.577 47.3513C315.632 48.2579 316.286 48.9145 317.2 48.9729V48.9734ZM346.389 39.6106C346.9 40.1213 347.305 40.7276 347.582 41.3949C347.858 42.0622 348.001 42.7774 348.001 43.4997C348.001 44.222 347.858 44.9372 347.582 45.6045C347.305 46.2718 346.9 46.8781 346.389 47.3888C345.357 48.4199 343.958 48.9992 342.499 48.9992C341.041 48.9992 339.641 48.4199 338.609 47.3888C336.462 45.2411 336.462 41.7583 338.609 39.6106C339.12 39.1001 339.726 38.6951 340.393 38.4188C341.059 38.1424 341.774 38.0001 342.496 38C343.219 37.9995 343.935 38.1415 344.603 38.418C345.271 38.6945 345.878 39.0999 346.389 39.6112V39.6106ZM344.833 41.1681C345.452 41.7872 345.799 42.6266 345.799 43.5017C345.799 44.3769 345.452 45.2163 344.833 45.8354C344.214 46.454 343.375 46.8015 342.499 46.8015C341.624 46.8015 340.785 46.454 340.166 45.8354C339.547 45.2163 339.2 44.3769 339.2 43.5017C339.2 42.6266 339.547 41.7872 340.166 41.1681C340.785 40.5495 341.624 40.202 342.499 40.202C343.375 40.202 344.214 40.5495 344.833 41.1681ZM330.953 38C331.675 38.0002 332.39 38.1426 333.057 38.419C333.723 38.6955 334.329 39.1006 334.84 39.6112C336.988 41.7583 336.988 45.2417 334.84 47.3888C333.808 48.4199 332.408 48.9992 330.95 48.9992C329.491 48.9992 328.092 48.4199 327.06 47.3888C324.912 45.2411 324.912 41.7583 327.06 39.6106C327.57 39.1001 328.176 38.6951 328.843 38.4188C329.51 38.1424 330.224 38.0001 330.946 38H330.953ZM333.283 41.1669C333.902 41.7861 334.25 42.6255 334.25 43.5009C334.25 44.3762 333.902 45.2157 333.283 45.8348C332.664 46.4534 331.825 46.8009 330.95 46.8009C330.074 46.8009 329.235 46.4534 328.616 45.8348C327.997 45.2157 327.65 44.3763 327.65 43.5012C327.65 42.626 327.997 41.7866 328.616 41.1675C329.235 40.5489 330.074 40.2014 330.95 40.2014C331.825 40.2014 332.664 40.5489 333.283 41.1675V41.1669Z" fill="#272D38"/>
<defs>
<clipPath id="clip0_23_615">
<rect width="70" height="24" fill="white" transform="translate(16 31)"/>
</clipPath>
<clipPath id="clip1_23_615">
<rect width="60" height="23.8017" fill="white" transform="translate(115.667 31.0992)"/>
</clipPath>
<clipPath id="clip2_23_615">
<rect width="80" height="23.5583" fill="white" transform="translate(205.333 31.2209)"/>
</clipPath>
</defs>
</svg>
